<svg xmlns="http://www.w3.org/2000/svg" width="16" height="16" viewBox="0 0 16 16"><defs><style>.a{fill:none;}.b{fill:#7917c7;fill-rule:evenodd;}</style></defs><rect class="a" width="15.8" height="15.8"/><path class="b" d="M267.4,10a2,2,0,1,0-1.974-2A1.993,1.993,0,0,0,267.4,10Zm-4.046-6.4a5.544,5.544,0,0,1,2.368-1.3l.789-2.3h1.974l.789,2.3a6.864,6.864,0,0,1,2.368,1.3l2.368-.5L275,4.9l-1.579,1.8a5.776,5.776,0,0,1,.1,1.3c0,.4-.1.9-.1,1.3L275,11.1l-.987,1.8-2.368-.5a5.544,5.544,0,0,1-2.368,1.3l-.789,2.3h-1.974l-.789-2.3a6.864,6.864,0,0,1-2.368-1.3l-2.368.5L260,11.1l1.579-1.8a5.776,5.776,0,0,1-.1-1.3c0-.4.1-.9.1-1.3L260,4.9l.987-1.8Z" transform="translate(-259)"/></svg>