<svg xmlns="http://www.w3.org/2000/svg" width="20" height="20" viewBox="0 0 20 20"><defs><style>.a{fill:#e582fb;}</style></defs><path class="a" d="M130.868,62.538l1.1,2.3a2.593,2.593,0,0,0,1.943,1.456l2.427.37a2.656,2.656,0,0,1,1.448,4.478l-1.878,1.92a2.677,2.677,0,0,0-.724,2.282l.412,2.642a2.6,2.6,0,0,1-3.792,2.734L129.78,79.6a2.54,2.54,0,0,0-2.475,0l-2.021,1.125a2.6,2.6,0,0,1-3.792-2.734l.412-2.642a2.679,2.679,0,0,0-.724-2.282l-1.878-1.92a2.656,2.656,0,0,1,1.448-4.478l2.427-.37a2.592,2.592,0,0,0,1.943-1.456l1.1-2.3A2.562,2.562,0,0,1,130.868,62.538Z" transform="translate(-118.543 -61.052)"/></svg>