<svg xmlns="http://www.w3.org/2000/svg" xmlns:xlink="http://www.w3.org/1999/xlink" width="16" height="16" viewBox="0 0 16 16">
  <defs>
    <clipPath id="clip-path">
      <rect id="사각형_1867" data-name="사각형 1867" width="16" height="16" transform="translate(1476 -1192)" fill="#fff" stroke="#707070" stroke-width="1"/>
    </clipPath>
  </defs>
  <g id="마스크_그룹_19" data-name="마스크 그룹 19" transform="translate(-1476 1192)" clip-path="url(#clip-path)">
    <g id="noun_Search_ranking_2304075" data-name="noun_Search ranking_2304075" transform="translate(1449.07 -1217.416)">
      <path id="패스_396" data-name="패스 396" d="M38.834,32.889a.593.593,0,0,0,.209.039,3.182,3.182,0,1,0,0-6.364h-.031v-.407a.594.594,0,0,0-.594-.6H30.761a.593.593,0,0,0-.594.6v.408h-.056a3.182,3.182,0,1,0,0,6.364.589.589,0,0,0,.231-.047,3.941,3.941,0,0,0,2.294,2.489v3.592h-.421a.773.773,0,0,0-.773.773v.271h-.618a.945.945,0,0,0-.946.946v.608H39.3v-.608a.946.946,0,0,0-.946-.946h-.619v-.271a.773.773,0,0,0-.773-.773h-.421V35.37A3.938,3.938,0,0,0,38.834,32.889Zm.209-5.137a1.994,1.994,0,1,1,0,3.989H38.98L39,27.747A.13.13,0,0,0,39.042,27.752Zm-10.92,1.994a2,2,0,0,1,1.994-1.994.527.527,0,0,0,.063,0l.024,4a.577.577,0,0,0-.088-.007A2,2,0,0,1,28.122,29.746Z" transform="translate(0 0)" fill="#ae50fa"/>
    </g>
  </g>
</svg>
