<svg xmlns="http://www.w3.org/2000/svg" width="14" height="14" viewBox="0 0 14 14"><g transform="translate(-1930 -3264)"><g transform="translate(1927.726 3252.772)"><g transform="translate(2.274 13.1)"><path d="M16.13,19.894a3.037,3.037,0,0,0-1.868-.853,4.41,4.41,0,0,0-.338-1.162.338.338,0,0,1-.029-.206l.191-1.132a6.7,6.7,0,0,0,.088-1.059,6.485,6.485,0,0,0-.235-1.735.887.887,0,0,0-.868-.647.911.911,0,0,0-.6.235,6.3,6.3,0,0,0-1.382,1.779.263.263,0,0,1-.324.132,5.811,5.811,0,0,0-2.971,0,.27.27,0,0,1-.324-.147,6.234,6.234,0,0,0-1.382-1.765.883.883,0,0,0-.6-.235.9.9,0,0,0-.868.647,6.72,6.72,0,0,0-.235,1.706,6.221,6.221,0,0,0,.088,1.074l.191,1.132a.338.338,0,0,1-.029.206,5.046,5.046,0,0,0-.338,1.162,3.21,3.21,0,0,0-1.868.853.488.488,0,0,0-.015.691.478.478,0,0,0,.353.147.491.491,0,0,0,.338-.132,2.176,2.176,0,0,1,1.118-.559,5,5,0,0,0,.088.676,3.078,3.078,0,0,0-1.25.735.488.488,0,0,0-.015.691.478.478,0,0,0,.353.147.491.491,0,0,0,.338-.132,2.049,2.049,0,0,1,.912-.515,5.414,5.414,0,0,0,4.647,2.323c1.559,0,3.691-.647,4.6-2.294a2.049,2.049,0,0,1,.912.515.491.491,0,0,0,.338.132.456.456,0,0,0,.353-.147.488.488,0,0,0-.015-.691,3.078,3.078,0,0,0-1.25-.735,5,5,0,0,0,.088-.676,2.176,2.176,0,0,1,1.118.559.491.491,0,0,0,.338.132.456.456,0,0,0,.353-.147A.506.506,0,0,0,16.13,19.894Z" transform="translate(-2.274 -13.1)" fill="#7917c7"/></g></g><g transform="translate(1 9)"><rect width="14" height="14" transform="translate(1929 3255)" fill="none"/></g></g></svg>