<svg xmlns="http://www.w3.org/2000/svg" width="14" height="14" viewBox="0 0 14 14"><g transform="translate(-1929 -3255)"><g transform="translate(-42 42.161)"><path d="M45.766,39.953l-1.415-1.061a.444.444,0,0,0-.621.089L42,41.282l2.125,1.593,1.726-2.3A.444.444,0,0,0,45.766,39.953Z" transform="translate(1936.666 3175.264)" fill="#7917c7"/><path d="M15.96,59.82a.444.444,0,0,0,.089.621L17.463,61.5a.444.444,0,0,0,.621-.089l5.232-6.976-2.125-1.594Z" transform="translate(1957 3164.339)" fill="#7917c7"/></g><rect width="14" height="14" transform="translate(1929 3255)" fill="none"/></g></svg>