<svg xmlns="http://www.w3.org/2000/svg" width="70" height="70" viewBox="0 0 70 70"><g transform="translate(-966 2952) rotate(-90)"><g transform="translate(2885 969)" fill="none"><path d="M32,0A32,32,0,0,1,48.9,59.176,31.609,31.609,0,0,1,32,64,32,32,0,0,1,32,0Z" stroke="none"/><path d="M 32 0 C 14.32688903808594 0 0 14.32688903808594 0 32 C 0 49.67311096191406 14.32688903808594 64 32 64 C 38.30937957763672 64 44.19227600097656 62.17399978637695 48.90465545654297 59.17553329467773 C 58.07664489746094 53.34397888183594 64 43.36372375488281 64 32 C 64 14.32688903808594 49.67311096191406 0 32 0 M 32 -3 C 36.7236442565918 -3 41.30758666992188 -2.074188232421875 45.6245002746582 -0.2482986450195313 C 49.79263305664063 1.514678955078125 53.53536605834961 4.037887573242188 56.74873352050781 7.251266479492188 C 59.96211242675781 10.46463394165039 62.48532104492188 14.20736694335938 64.24829864501953 18.3754997253418 C 66.07418823242188 22.69240951538086 67 27.2763557434082 67 32 C 67 35.05028915405273 66.60643005371094 38.07556915283203 65.83023071289063 40.99181365966797 C 65.07443237304688 43.83141326904297 63.95497894287109 46.57266616821289 62.50297927856445 49.13943481445313 C 59.64486694335938 54.19186782836914 55.49923324584961 58.53772354125977 50.51426696777344 61.70716857910156 C 47.87843322753906 63.38433456420898 44.97707748413086 64.69158935546875 41.89167785644531 65.59205627441406 C 38.69052124023438 66.52629852294922 35.36248779296875 67 32 67 C 27.2763557434082 67 22.69240951538086 66.07418823242188 18.3754997253418 64.24829864501953 C 14.20736694335938 62.48532104492188 10.46463394165039 59.96211242675781 7.251266479492188 56.74873352050781 C 4.037887573242188 53.53536605834961 1.514678955078125 49.79263305664063 -0.2482986450195313 45.6245002746582 C -2.074188232421875 41.30758666992188 -3 36.7236442565918 -3 32 C -3 27.2763557434082 -2.074188232421875 22.69240951538086 -0.2482986450195313 18.3754997253418 C 1.514678955078125 14.20736694335938 4.037887573242188 10.46463394165039 7.251266479492188 7.251266479492188 C 10.46463394165039 4.037887573242188 14.20736694335938 1.514678955078125 18.3754997253418 -0.2482986450195313 C 22.69240951538086 -2.074188232421875 27.2763557434082 -3 32 -3 Z" stroke="none" fill="#ffef67"/></g></g></svg>