<svg xmlns="http://www.w3.org/2000/svg" width="70" height="70" viewBox="0 0 70 70"><g transform="translate(-1019 -5098)"><g transform="translate(-1863 4132)"><g transform="translate(2885 969)" fill="#e582fb" stroke="#7917c7" stroke-width="4"><circle cx="32" cy="32" r="32" stroke="none"/><circle cx="32" cy="32" r="30" fill="none"/></g><path d="M141.064,190.1l3.477,7.143a3.964,3.964,0,0,0,2.978,2.186l7.667,1.145A3.964,3.964,0,0,1,157.4,207.3l-5.749,5.758a3.962,3.962,0,0,0-1.11,3.424l1.277,8.018a3.963,3.963,0,0,1-5.811,4.1L139.4,225a3.967,3.967,0,0,0-3.794,0l-6.615,3.606a3.963,3.963,0,0,1-5.811-4.1l1.277-8.018a3.962,3.962,0,0,0-1.11-3.424L117.6,207.3a3.964,3.964,0,0,1,2.219-6.721l7.667-1.145a3.964,3.964,0,0,0,2.978-2.186l3.477-7.143A3.964,3.964,0,0,1,141.064,190.1Z" transform="translate(2779.5 791.261)" fill="#ae50fa"/><g transform="translate(2885 1033) rotate(-90)" fill="none" stroke="#ffef67" stroke-width="3"><circle cx="32" cy="32" r="32" stroke="none"/><circle cx="32" cy="32" r="33.5" fill="none"/></g></g><rect width="70" height="70" transform="translate(1019 5098)" fill="none"/></g></svg>