<svg xmlns="http://www.w3.org/2000/svg" width="15.948" height="15.747" viewBox="0 0 15.948 15.747"><defs><style>.a{fill:#ae50fa;}</style></defs><g transform="translate(-3 -5)"><path class="a" d="M3.613,5A.613.613,0,0,0,3,5.613l.024,14.52a.613.613,0,0,0,.613.613h6.747L10.361,5Zm6.134,7.974a.613.613,0,1,1-1.227,0V10.521a.613.613,0,0,1,1.227,0Z"/><path class="a" d="M23.747,5H17V20.677h6.747a.613.613,0,0,0,.613-.613V5.613A.613.613,0,0,0,23.747,5ZM18.84,12.974a.613.613,0,1,1-1.227,0V10.521a.613.613,0,0,1,1.227,0Z" transform="translate(-5.413)"/></g></svg>