<svg xmlns="http://www.w3.org/2000/svg" width="12" height="12" viewBox="0 0 12 12"><path d="M125.938,61.943l.659,1.382a1.556,1.556,0,0,0,1.166.874l1.456.222a1.594,1.594,0,0,1,.869,2.687L128.96,68.26a1.606,1.606,0,0,0-.434,1.369l.247,1.585a1.558,1.558,0,0,1-2.275,1.64l-1.213-.675a1.524,1.524,0,0,0-1.485,0l-1.213.675a1.558,1.558,0,0,1-2.275-1.64l.247-1.585a1.608,1.608,0,0,0-.435-1.369L119,67.108a1.594,1.594,0,0,1,.869-2.687l1.456-.222a1.555,1.555,0,0,0,1.166-.874l.659-1.382A1.537,1.537,0,0,1,125.938,61.943Z" transform="translate(-118.543 -61.052)" fill="#ffe644"/></svg>