<svg xmlns="http://www.w3.org/2000/svg" width="16" height="13.38" viewBox="0 0 16 13.38"><defs><style>.a{fill:#fff;}</style></defs><g transform="translate(-5.864 -13.09)"><path class="a" d="M12.1,15.653a2.564,2.564,0,1,1,2.563,2.564A2.563,2.563,0,0,1,12.1,15.653Zm-3.033,2.26A1.865,1.865,0,1,0,7.2,16.048,1.865,1.865,0,0,0,9.067,17.914Zm12.155,5.157-1.5-.007-.008-1.546a.644.644,0,0,0-.639-.642.623.623,0,0,0-.446.186.639.639,0,0,0-.187.457l.008,1.539L16.91,23.05a.637.637,0,0,0-.454.189.63.63,0,0,0-.185.448.645.645,0,0,0,.642.636l1.545.007.007,1.5a.644.644,0,0,0,.636.642h0a.626.626,0,0,0,.448-.187.64.64,0,0,0,.186-.456l-.007-1.492,1.494.008a.638.638,0,0,0,.456-.188.626.626,0,0,0,.183-.449A.645.645,0,0,0,21.222,23.071Zm-3.5-.741,0-.808a1.359,1.359,0,0,1,.234-.773,4.4,4.4,0,0,0-6.111-.459,3.2,3.2,0,0,0-5.981,1.592h4.777a4.385,4.385,0,0,0-.381,1.792h5.289a1.358,1.358,0,0,1,1.365-1.347Z" transform="translate(0 0)"/></g></svg>