<svg xmlns="http://www.w3.org/2000/svg" xmlns:xlink="http://www.w3.org/1999/xlink" width="16" height="16" viewBox="0 0 16 16">
  <defs>
    <clipPath id="clip-path">
      <rect id="사각형_1866" data-name="사각형 1866" width="16" height="16" transform="translate(1475 -1214)" fill="#fff" stroke="#707070" stroke-width="1"/>
    </clipPath>
  </defs>
  <g id="마스크_그룹_18" data-name="마스크 그룹 18" transform="translate(-1475 1214)" clip-path="url(#clip-path)">
    <path id="noun_Friend_1429962" d="M14.189,4.19a1.971,1.971,0,0,0,.732-1.866A1.939,1.939,0,0,0,13.33.683a1.984,1.984,0,0,0-1.6,3.508A2.776,2.776,0,0,0,9.57,5.458l-.363.215-.569.336L8.173,5.2A2.288,2.288,0,0,0,6.2,4.059H6.089A1.989,1.989,0,0,0,6.83,2.183,1.961,1.961,0,0,0,5.228.521a2,2,0,0,0-1.616,3.54H3.274A2.346,2.346,0,0,0,.93,6.405V9.992a1.2,1.2,0,0,0,1.6,1.131v4a1.36,1.36,0,0,0,2.318.969A1.36,1.36,0,0,0,7.17,15.12V8.308a1.407,1.407,0,0,0,1.822.323l.136-.082V9.862a1.168,1.168,0,0,0,1.53,1.112v4.152a1.351,1.351,0,0,0,2.3.969,1.351,1.351,0,0,0,2.3-.969V10.979a1.168,1.168,0,0,0,1.53-1.112V6.959A2.777,2.777,0,0,0,14.189,4.19Z" transform="translate(1474.07 -1214.484)" fill="#ae50fa"/>
  </g>
</svg>
