<svg xmlns="http://www.w3.org/2000/svg" width="16" height="16" viewBox="0 0 16 16"><defs><style>.a{fill:none;}.b{fill:#fff;}</style></defs><rect class="a" width="16" height="16"/><path class="b" d="M20.462,29.35V20.072a.369.369,0,0,0-.123-.253.377.377,0,0,0-.229-.107H18.164a.408.408,0,0,0-.253.1.414.414,0,0,0-.134.28v6.923H10.892l2.13-2.13a.35.35,0,0,0,0-.493l-1.406-1.406a.35.35,0,0,0-.493,0L6.017,28.091a.4.4,0,0,0,0,.529l5.107,5.107a.35.35,0,0,0,.493,0l1.406-1.406a.35.35,0,0,0,0-.493l-2.13-2.13h9.221A.349.349,0,0,0,20.462,29.35Z" transform="translate(-5.606 -18.829)"/></svg>