<svg xmlns="http://www.w3.org/2000/svg" width="30" height="30" viewBox="0 0 30 30">
  <g id="그룹_269" data-name="그룹 269" transform="translate(-218 -400)">
    <g id="그룹_265" data-name="그룹 265" transform="translate(203 -176)">
      <g id="그룹_190" data-name="그룹 190" transform="translate(-7 253)">
        <g id="그룹_52" data-name="그룹 52" transform="translate(-9013 -397)">
          <circle id="타원_298" data-name="타원 298" cx="15" cy="15" r="15" transform="translate(9035 720)" fill="none"/>
        </g>
      </g>
      <path id="패스_157" data-name="패스 157" d="M128.4,62.241l.879,1.843a2.075,2.075,0,0,0,1.554,1.165l1.942.3a2.125,2.125,0,0,1,1.158,3.583l-1.5,1.536a2.141,2.141,0,0,0-.579,1.825l.329,2.113a2.077,2.077,0,0,1-3.034,2.187l-1.617-.9a2.032,2.032,0,0,0-1.98,0l-1.617.9A2.077,2.077,0,0,1,120.9,74.6l.33-2.113a2.143,2.143,0,0,0-.579-1.825l-1.5-1.536a2.125,2.125,0,0,1,1.158-3.583l1.942-.3a2.073,2.073,0,0,0,1.554-1.165l.879-1.843A2.05,2.05,0,0,1,128.4,62.241Z" transform="translate(-96.543 521.448)" fill="#7917c7" stroke="#7917c7" stroke-width="1"/>
    </g>
    <g id="그룹_267" data-name="그룹 267" transform="translate(6.877 16.877)">
      <line id="선_240" data-name="선 240" x2="5.246" transform="translate(232.5 388.623)" fill="none" stroke="#7917c7" stroke-width="1.2"/>
      <line id="선_241" data-name="선 241" x2="5.246" transform="translate(235.123 386) rotate(90)" fill="none" stroke="#7917c7" stroke-width="1.2"/>
    </g>
  </g>
</svg>
