<svg xmlns="http://www.w3.org/2000/svg" width="16" height="16" viewBox="0 0 16 16"><defs><style>.a{fill:#ffe644;}</style></defs><path class="a" d="M128.4,62.241l.879,1.843a2.075,2.075,0,0,0,1.554,1.165l1.942.3a2.125,2.125,0,0,1,1.158,3.583l-1.5,1.536a2.141,2.141,0,0,0-.579,1.825l.329,2.113a2.077,2.077,0,0,1-3.034,2.187l-1.617-.9a2.032,2.032,0,0,0-1.98,0l-1.617.9A2.077,2.077,0,0,1,120.9,74.6l.33-2.113a2.143,2.143,0,0,0-.579-1.825l-1.5-1.536a2.125,2.125,0,0,1,1.158-3.583l1.942-.3a2.073,2.073,0,0,0,1.554-1.165l.879-1.843A2.05,2.05,0,0,1,128.4,62.241Z" transform="translate(-118.543 -61.052)"/></svg>