<svg xmlns="http://www.w3.org/2000/svg" width="14" height="14" viewBox="0 0 14 14"><g transform="translate(-2943 -2504)"><rect width="14" height="14" transform="translate(2943 2504)" fill="none"/><g transform="translate(2943 2504.891)"><path d="M733.251,420.536a9.628,9.628,0,0,1-1.7-.456l-.336.878a9.035,9.035,0,0,0,2.039.462Zm2.94,0v.884a9.035,9.035,0,0,0,2.039-.462l-.336-.878A9.628,9.628,0,0,1,736.191,420.536Zm-5.078-.493,3.412-8.909a.21.21,0,0,1,.392,0l3.412,8.909c1.881.261,3.113.738,3.113,1.353,0,.954-2.964,1.575-6.721,1.575S728,422.35,728,421.4C728,420.781,729.231,420.3,731.113,420.044Zm2.558.2v1.47h2.1v-1.47Z" transform="translate(-728 -411)" fill="#ae50fa"/></g></g></svg>