<svg xmlns="http://www.w3.org/2000/svg" width="14" height="14" viewBox="0 0 14 14"><g transform="translate(-2943 -2504)"><rect width="14" height="14" transform="translate(2943 2504)" fill="none"/><g transform="translate(2943 2506.385)"><path d="M24.714,42.42l-2.431-1.8a3.734,3.734,0,0,0-2.24-.725H16.378a3.734,3.734,0,0,0-2.24.725l-2.449,1.8a.415.415,0,0,0-.052.626l1.389,1.367a.468.468,0,0,0,.59.033l1.25-.922-.33,5.056a.758.758,0,0,0,.781.79h5.714a.758.758,0,0,0,.781-.79l-.3-5.039,1.25.922a.468.468,0,0,0,.59-.033l1.407-1.367A.432.432,0,0,0,24.714,42.42Z" transform="translate(-11.518 -39.9)" fill="#ae50fa"/></g></g></svg>