<svg xmlns="http://www.w3.org/2000/svg" width="14" height="14" viewBox="0 0 14 14"><g transform="translate(-2943 -2504)"><rect width="14" height="14" transform="translate(2943 2504)" fill="none"/><g transform="translate(2916.367 2482.72)"><path d="M38.362,22.28H28.9a.262.262,0,0,0-.27.251V26.8h10v-4.27A.262.262,0,0,0,38.362,22.28Z" transform="translate(0)" fill="#7917c7"/><path d="M28.633,45.612a2.014,2.014,0,0,0,1.741,2.2h.759c.662,0,1.2.746,1.2,1.662v1.851a1.49,1.49,0,0,0,1.3,1.622,1.488,1.488,0,0,0,1.3-1.622V49.477c0-.916.538-1.662,1.2-1.662h.762a2.014,2.014,0,0,0,1.741-2.2v-.229h-10Zm4.73,4.906a.27.27,0,0,1,.541,0v.811a.27.27,0,0,1-.541,0Z" transform="translate(0 -17.697)" fill="#7917c7"/></g></g></svg>