<svg xmlns="http://www.w3.org/2000/svg" width="14" height="14" viewBox="0 0 14 14"><path d="M0,0H14V14H0Z" fill="none"/><path d="M19.85,17.11a5.067,5.067,0,0,0-3.707-1.8,8.6,8.6,0,0,0-3.467.156A4.765,4.765,0,0,0,9.9,17.65a2.833,2.833,0,0,0-2.016,1.723,4.088,4.088,0,0,0-.108,2.384,11.979,11.979,0,0,0,.835,2.257c.278.62.508,1.188.786,1.808a3.644,3.644,0,0,1,.6-1.91,7.781,7.781,0,0,0,.758-3.233,16.118,16.118,0,0,0,7.959,2.558,12.788,12.788,0,0,1,.459,2.457,11.964,11.964,0,0,0,1.4-5.619A5.166,5.166,0,0,0,19.85,17.11Z" transform="translate(-6.648 -13.179)" fill="#7917c7"/></svg>