<svg xmlns="http://www.w3.org/2000/svg" width="93" height="93" viewBox="0 0 93 93"><g transform="translate(-36.345 -123.584)"><g transform="translate(37.845 125.084)"><circle cx="45" cy="45" r="45" transform="translate(0)" fill="#7917c7" stroke="#e582fb" stroke-width="3"/></g><g transform="translate(45.283 130.31)"><path d="M152.781,191.164l5.131,10.541a5.85,5.85,0,0,0,4.395,3.226l11.314,1.69a5.849,5.849,0,0,1,3.275,9.918l-8.484,8.5a5.846,5.846,0,0,0-1.638,5.053l1.884,11.832a5.849,5.849,0,0,1-8.575,6.056l-9.762-5.321a5.854,5.854,0,0,0-5.6,0l-9.762,5.321a5.849,5.849,0,0,1-8.575-6.056l1.884-11.832a5.846,5.846,0,0,0-1.638-5.053l-8.484-8.5a5.849,5.849,0,0,1,3.275-9.918l11.314-1.69a5.85,5.85,0,0,0,4.395-3.226l5.131-10.541A5.849,5.849,0,0,1,152.781,191.164Z" transform="translate(-109.96 -180.365)" fill="#ffff94"/><rect width="75.124" height="75.124" fill="none"/></g></g></svg>