<svg xmlns="http://www.w3.org/2000/svg" xmlns:xlink="http://www.w3.org/1999/xlink" width="70" height="70" viewBox="0 0 70 70"><defs><style>.a{fill:#fff;stroke:#707070;}.b{clip-path:url(#a);}.c{fill:#7917c7;stroke-width:3px;}.c,.d{stroke:#7917c7;}.d{fill:#e582fb;stroke-width:4px;}.e{fill:#ae50fa;}.f{stroke:none;}.g{fill:none;}</style><clipPath id="a"><rect class="a" width="70" height="70" transform="translate(887 5164)"/></clipPath></defs><g class="b" transform="translate(-887 -5164)"><g transform="translate(-45 -48)"><g class="c" transform="translate(935 5279) rotate(-90)"><circle class="f" cx="32" cy="32" r="32"/><circle class="g" cx="32" cy="32" r="33.5"/></g><g transform="translate(-1950 4246)"><g class="d" transform="translate(2885 969)"><circle class="f" cx="32" cy="32" r="32"/><circle class="g" cx="32" cy="32" r="30"/></g><path class="e" d="M141.064,190.1l3.477,7.143a3.964,3.964,0,0,0,2.978,2.186l7.667,1.145A3.964,3.964,0,0,1,157.4,207.3l-5.749,5.758a3.962,3.962,0,0,0-1.11,3.424l1.277,8.018a3.963,3.963,0,0,1-5.811,4.1L139.4,225a3.967,3.967,0,0,0-3.794,0l-6.615,3.606a3.963,3.963,0,0,1-5.811-4.1l1.277-8.018a3.962,3.962,0,0,0-1.11-3.424L117.6,207.3a3.964,3.964,0,0,1,2.219-6.721l7.667-1.145a3.964,3.964,0,0,0,2.978-2.186l3.477-7.143A3.964,3.964,0,0,1,141.064,190.1Z" transform="translate(2779.5 791.261)"/></g></g></g></svg>