<svg xmlns="http://www.w3.org/2000/svg" width="70" height="70" viewBox="0 0 70 70"><g transform="translate(-1019 -5098)"><g transform="translate(-1863 4132)"><g transform="translate(2885 969)" fill="#7917c7"><path d="M 32 62 C 27.94915008544922 62 24.0205192565918 61.20708084106445 20.3232593536377 59.64326858520508 C 16.75111961364746 58.13238143920898 13.54259014129639 55.96900177001953 10.78680038452148 53.21319961547852 C 8.031000137329102 50.4574089050293 5.86761999130249 47.24887847900391 4.356729984283447 43.67673873901367 C 2.792920112609863 39.9794807434082 2 36.05084991455078 2 32 C 2 27.94915008544922 2.792920112609863 24.0205192565918 4.356729984283447 20.3232593536377 C 5.86761999130249 16.75111961364746 8.031000137329102 13.54259014129639 10.78680038452148 10.78680038452148 C 13.54259014129639 8.031000137329102 16.75111961364746 5.86761999130249 20.3232593536377 4.356729984283447 C 24.0205192565918 2.792920112609863 27.94915008544922 2 32 2 C 36.05084991455078 2 39.9794807434082 2.792920112609863 43.67673873901367 4.356729984283447 C 47.24887847900391 5.86761999130249 50.4574089050293 8.031000137329102 53.21319961547852 10.78680038452148 C 55.96900177001953 13.54259014129639 58.13238143920898 16.75111961364746 59.64326858520508 20.3232593536377 C 61.20708084106445 24.0205192565918 62 27.94915008544922 62 32 C 62 36.05084991455078 61.20708084106445 39.9794807434082 59.64326858520508 43.67673873901367 C 58.13238143920898 47.24887847900391 55.96900177001953 50.4574089050293 53.21319961547852 53.21319961547852 C 50.4574089050293 55.96900177001953 47.24887847900391 58.13238143920898 43.67673873901367 59.64326858520508 C 39.9794807434082 61.20708084106445 36.05084991455078 62 32 62 Z" stroke="none"/><path d="M 32 4 C 28.21825790405273 4 24.55176544189453 4.739765167236328 21.10236358642578 6.198741912841797 C 17.76862335205078 7.608787536621094 14.77377700805664 9.628246307373047 12.20101165771484 12.20101165771484 C 9.628246307373047 14.77377700805664 7.608787536621094 17.76862335205078 6.198741912841797 21.10236358642578 C 4.739765167236328 24.55176544189453 4 28.21825790405273 4 32 C 4 35.78174209594727 4.739765167236328 39.44823455810547 6.198741912841797 42.89763641357422 C 7.608787536621094 46.23137664794922 9.628246307373047 49.22622299194336 12.20101165771484 51.79898834228516 C 14.77377700805664 54.37175369262695 17.76862335205078 56.39121246337891 21.10236358642578 57.8012580871582 C 24.55176544189453 59.26023483276367 28.21825790405273 60 32 60 C 35.78174209594727 60 39.44823455810547 59.26023483276367 42.89763641357422 57.8012580871582 C 46.23137664794922 56.39121246337891 49.22622299194336 54.37175369262695 51.79898834228516 51.79898834228516 C 54.37175369262695 49.22622299194336 56.39121246337891 46.23137664794922 57.8012580871582 42.89763641357422 C 59.26023483276367 39.44823455810547 60 35.78174209594727 60 32 C 60 28.21825790405273 59.26023483276367 24.55176544189453 57.8012580871582 21.10236358642578 C 56.39121246337891 17.76862335205078 54.37175369262695 14.77377700805664 51.79898834228516 12.20101165771484 C 49.22622299194336 9.628246307373047 46.23137664794922 7.608787536621094 42.89763641357422 6.198741912841797 C 39.44823455810547 4.739765167236328 35.78174209594727 4 32 4 M 32 0 C 49.6731071472168 0 64 14.3268928527832 64 32 C 64 49.6731071472168 49.6731071472168 64 32 64 C 14.3268928527832 64 0 49.6731071472168 0 32 C 0 14.3268928527832 14.3268928527832 0 32 0 Z" stroke="none" fill="#ffff94"/></g><path d="M141.064,190.1l3.477,7.143a3.964,3.964,0,0,0,2.978,2.186l7.667,1.145A3.964,3.964,0,0,1,157.4,207.3l-5.749,5.758a3.962,3.962,0,0,0-1.11,3.424l1.277,8.018a3.963,3.963,0,0,1-5.811,4.1L139.4,225a3.967,3.967,0,0,0-3.794,0l-6.615,3.606a3.963,3.963,0,0,1-5.811-4.1l1.277-8.018a3.962,3.962,0,0,0-1.11-3.424L117.6,207.3a3.964,3.964,0,0,1,2.219-6.721l7.667-1.145a3.964,3.964,0,0,0,2.978-2.186l3.477-7.143A3.964,3.964,0,0,1,141.064,190.1Z" transform="translate(2779.5 791.261)" fill="#ffff94"/><g transform="translate(2885 1033) rotate(-90)" fill="none" stroke="#ffef67" stroke-width="3"><circle cx="32" cy="32" r="32" stroke="none"/><circle cx="32" cy="32" r="33.5" fill="none"/></g></g><rect width="70" height="70" transform="translate(1019 5098)" fill="none"/></g></svg>